<?xml version="1.0" encoding="UTF-8" standalone="no" ?>
<!DOCTYPE svg PUBLIC "-//W3C//DTD SVG 1.1//EN" "http://www.w3.org/Graphics/SVG/1.1/DTD/svg11.dtd">
<svg xmlns="http://www.w3.org/2000/svg" xmlns:xlink="http://www.w3.org/1999/xlink" version="1.1" width="318" height="114" viewBox="0 0 318 114" xml:space="preserve">
<desc>Created with Fabric.js 3.6.3</desc>
<defs>
</defs>
<g transform="matrix(3.17 0 0 3.17 126.38 45.81)" style=""  >
		<text xml:space="preserve" font-family="'Open Sans', sans-serif" font-size="18" font-style="normal" font-weight="normal" style="stroke: none; stroke-width: 1; stroke-dasharray: none; stroke-linecap: butt; stroke-dashoffset: 0; stroke-linejoin: miter; stroke-miterlimit: 4; fill: rgb(0,0,0); fill-rule: nonzero; opacity: 1; white-space: pre;" ><tspan x="-40" y="5.65" style="font-family: 'Comic Sans MS', 'Comic Sans', cursive, sans-serif; font-weight: bold; white-space: pre; ">SCIT </tspan></text>
</g>
<g transform="matrix(1.35 0 0 1.35 75.12 88.39)" style=""  >
		<text xml:space="preserve" font-family="'Open Sans', sans-serif" font-size="18" font-style="normal" font-weight="normal" style="stroke: none; stroke-width: 1; stroke-dasharray: none; stroke-linecap: butt; stroke-dashoffset: 0; stroke-linejoin: miter; stroke-miterlimit: 4; fill: rgb(0,0,0); fill-rule: nonzero; opacity: 1; white-space: pre;" ><tspan x="-49.22" y="5.65" style="font-weight: bold; ">Blockchain</tspan></text>
</g>
<g transform="matrix(1.53 0 0 0.95 226.56 57.18)"  >
<path style="stroke: rgb(0,0,0); stroke-width: 1; stroke-dasharray: none; stroke-linecap: butt; stroke-dashoffset: 0; stroke-linejoin: miter; stroke-miterlimit: 10; fill: rgb(0,0,0); fill-rule: evenodd; opacity: 1;"  transform=" translate(-59.83, -59.83)" d="m 0 59.82677 l 9.952638 -6.5662766 l -7.91409 -8.91803 l 11.312678 -3.7663116 l -5.3359585 -10.662767 l 11.902236 -0.7101288 l -2.3946476 -11.680401 l 11.680401 2.3946476 l 0.7101288 -11.902236 l 10.662767 5.3359585 l 3.7663116 -11.312678 l 8.91803 7.91409 l 6.5662766 -9.952638 l 6.5662804 9.952638 l 8.91803 -7.91409 l 3.7663116 11.312678 l 10.6627655 -5.3359585 l 0.7101288 11.902236 l 11.680397 -2.3946476 l -2.3946457 11.680401 l 11.902237 0.7101288 l -5.3359604 10.662767 l 11.312683 3.7663116 l -7.914093 8.91803 l 9.952637 6.5662766 l -9.952637 6.5662804 l 7.914093 8.91803 l -11.312683 3.7663116 l 5.3359604 10.6627655 l -11.902237 0.7101288 l 2.3946457 11.680397 l -11.680397 -2.3946457 l -0.7101288 11.902237 l -10.6627655 -5.3359604 l -3.7663116 11.312683 l -8.91803 -7.914093 l -6.5662804 9.952637 l -6.5662766 -9.952637 l -8.91803 7.914093 l -3.7663116 -11.312683 l -10.662767 5.3359604 l -0.7101288 -11.902237 l -11.680401 2.3946457 l 2.3946476 -11.680397 l -11.902236 -0.7101288 l 5.3359585 -10.6627655 l -11.312678 -3.7663116 l 7.91409 -8.91803 z" stroke-linecap="round" />
</g>
<g transform="matrix(3.5 0 0 3.5 229.39 58.6)" style=""  >
		<text xml:space="preserve" font-family="'Open Sans', sans-serif" font-size="18" font-style="normal" font-weight="normal" style="stroke: none; stroke-width: 0; stroke-dasharray: none; stroke-linecap: butt; stroke-dashoffset: 0; stroke-linejoin: miter; stroke-miterlimit: 4; fill: rgb(255,255,255); fill-rule: nonzero; opacity: 1; white-space: pre;" ><tspan x="-21.25" y="5.65" style="font-family: 'Comic Sans MS', 'Comic Sans', cursive, sans-serif; fill: rgb(255,255,255); ">Vote</tspan></text>
</g>
</svg>